<svg 
    xmlns="http://www.w3.org/2000/svg"
    viewBox="595 605 310 310"
    width="100%"
    height="100%"
    preserveAspectRatio="xMidYMid meet"
>
    <defs>
        <clipPath id="clip1">
            <path d="M 707.117188 669.65625 L 792.617188 669.65625 L 792.617188 784 L 707.117188 784 Z"/>
        </clipPath>

        <clipPath id="clip2">
            <path d="M 707.117188 735.050781 L 792.617188 735.050781 L 792.617188 848.90625 L 707.117188 848.90625 Z"/>
        </clipPath>

        <clipPath id="clip3">
            <path d="M 595.214844 604.675781 L 904.964844 604.675781 L 904.964844 914.425781 L 595.214844 914.425781 Z"/>
        </clipPath>
    </defs>

    <g clip-path="url(#clip1)">
        <path fill="#ffffff" d="M 792.875 669.722656 L 707.117188 718.117188 L 707.117188 783.761719 L 735.703125 767.410156 L 735.703125 734.808594 L 792.875 702.546875 Z"/>
    </g>

    <g clip-path="url(#clip2)">
        <path fill="#ffffff" d="M 764.289062 751.5 L 764.289062 784.101562 L 707.117188 816.363281 L 707.117188 849.1875 L 792.875 800.796875 L 792.875 735.148438 Z"/>
    </g>

    <g clip-path="url(#clip3)">
        <path fill="#ffffff" d="M 750.089844 914.425781 C 664.664062 914.425781 595.214844 844.976562 595.214844 759.550781 C 595.214844 674.125 664.664062 604.675781 750.089844 604.675781 C 835.515625 604.675781 904.964844 674.125 904.964844 759.550781 C 904.964844 844.976562 835.515625 914.425781 750.089844 914.425781 Z M 750.089844 618.042969 C 672.164062 618.042969 608.582031 681.625 608.582031 759.550781 C 608.582031 837.476562 672.164062 901.058594 750.089844 901.058594 C 828.015625 901.058594 891.597656 837.476562 891.597656 759.550781 C 891.597656 681.625 828.015625 618.042969 750.089844 618.042969 Z"/>
    </g>
</svg>