<svg xmlns="http://www.w3.org/2000/svg" viewBox="0 0 754 237" width="100%" height="auto" preserveAspectRatio="xMidYMid meet">
    <defs>
        <g/>
        <clipPath id="8249d42cbc">
            <path d="M84.867 49.691h63.242V136H84.867z"/>
        </clipPath>
        <clipPath id="657fdf17ab">
            <path d="M84.867 98.766h63.242v84.429H84.867z"/>
        </clipPath>
        <clipPath id="cdc811e3df">
            <path d="M.871.914H232.75v231.879H.871z"/>
        </clipPath>
        <clipPath id="b878aa937b">
            <rect width="754" height="237"/>
        </clipPath>
    </defs>

    <g>
        <g clip-path="url(#b878aa937b)">
            <g clip-path="url(#8249d42cbc)">
                <path fill="#ffffff" d="M 149.207031 49.753906 L 84.867188 86.058594 L 84.867188 135.308594 L 106.3125 123.042969 L 106.3125 98.582031 L 149.207031 74.378906 L 149.207031 49.753906 " fill-opacity="1" fill-rule="nonzero"/>
            </g>
            <g clip-path="url(#657fdf17ab)">
                <path fill="#ffffff" d="M 127.761719 111.105469 L 127.761719 135.566406 L 84.867188 159.769531 L 84.867188 184.394531 L 149.207031 148.089844 L 149.207031 98.839844 L 127.761719 111.105469 " fill-opacity="1" fill-rule="nonzero"/>
            </g>
            <g fill="#ffffff" fill-opacity="1">
                <g transform="translate(254.432129, 167.046704)">
                    <g>
                        <path d="M 48.40625 1.59375 C 43.425781 1.59375 38.535156 0.992188 33.734375 -0.203125 C 28.929688 -1.398438 24.507812 -3.332031 20.46875 -6 C 16.425781 -8.664062 13.046875 -12.109375 10.328125 -16.328125 C 7.617188 -20.554688 5.910156 -25.738281 5.203125 -31.875 L 21.203125 -31.875 C 22.359375 -26.800781 24.359375 -22.820312 27.203125 -19.9375 C 30.046875 -17.050781 33.378906 -15.003906 37.203125 -13.796875 C 41.023438 -12.597656 44.847656 -12 48.671875 -12 C 54.984375 -12 60.03125 -13.3125 63.8125 -15.9375 C 67.59375 -18.5625 69.484375 -22.582031 69.484375 -28 C 69.484375 -32.269531 68.238281 -35.535156 65.75 -37.796875 C 63.257812 -40.066406 60.015625 -41.800781 56.015625 -43 C 52.015625 -44.207031 47.703125 -45.300781 43.078125 -46.28125 C 38.984375 -47.164062 34.914062 -48.160156 30.875 -49.265625 C 26.832031 -50.378906 23.140625 -51.914062 19.796875 -53.875 C 16.460938 -55.832031 13.796875 -58.457031 11.796875 -61.75 C 9.796875 -65.039062 8.796875 -69.265625 8.796875 -74.421875 C 8.796875 -80.546875 10.285156 -85.765625 13.265625 -90.078125 C 16.242188 -94.390625 20.351562 -97.679688 25.59375 -99.953125 C 30.84375 -102.222656 36.800781 -103.359375 43.46875 -103.359375 C 49.695312 -103.359375 55.566406 -102.289062 61.078125 -100.15625 C 66.585938 -98.019531 71.253906 -94.707031 75.078125 -90.21875 C 78.898438 -85.726562 81.347656 -79.882812 82.421875 -72.6875 L 66.6875 -72.6875 C 65.257812 -78.8125 62.367188 -83.164062 58.015625 -85.75 C 53.660156 -88.332031 48.722656 -89.625 43.203125 -89.625 C 37.429688 -89.625 32.875 -88.421875 29.53125 -86.015625 C 26.195312 -83.617188 24.53125 -80.195312 24.53125 -75.75 C 24.53125 -72.101562 25.6875 -69.28125 28 -67.28125 C 30.3125 -65.28125 33.359375 -63.722656 37.140625 -62.609375 C 40.921875 -61.492188 44.941406 -60.453125 49.203125 -59.484375 C 53.390625 -58.585938 57.613281 -57.515625 61.875 -56.265625 C 66.144531 -55.023438 70.035156 -53.359375 73.546875 -51.265625 C 77.054688 -49.179688 79.878906 -46.359375 82.015625 -42.796875 C 84.148438 -39.242188 85.21875 -34.625 85.21875 -28.9375 C 85.21875 -19.6875 82.035156 -12.285156 75.671875 -6.734375 C 69.316406 -1.179688 60.226562 1.59375 48.40625 1.59375 Z M 48.40625 1.59375 "/>
                    </g>
                </g>
            </g>
            <g fill="#ffffff" fill-opacity="1">
                <g transform="translate(345.770755, 167.046704)">
                    <g>
                        <path d="M 17.734375 0 L 1.328125 0 L 38 -101.75 L 55.484375 -101.75 L 92.15625 0 L 75.875 0 L 68.015625 -22.9375 L 25.609375 -22.9375 Z M 46.8125 -85.078125 L 30.40625 -36.8125 L 63.21875 -36.8125 Z M 46.8125 -85.078125 "/>
                    </g>
                </g>
            </g>
            <g fill="#ffffff" fill-opacity="1">
                <g transform="translate(439.376178, 167.046704)">
                    <g>
                        <path d="M 25.46875 0 L 9.734375 0 L 9.734375 -101.75 L 25.46875 -101.75 L 25.46875 -58.140625 L 72.8125 -58.140625 L 72.8125 -101.75 L 88.546875 -101.75 L 88.546875 0 L 72.8125 0 L 72.8125 -44.015625 L 25.46875 -44.015625 Z M 25.46875 0 "/>
                    </g>
                </g>
            </g>
            <g fill="#ffffff" fill-opacity="1">
                <g transform="translate(537.915221, 167.046704)">
                    <g>
                        <path d="M 17.734375 0 L 1.328125 0 L 38 -101.75 L 55.484375 -101.75 L 92.15625 0 L 75.875 0 L 68.015625 -22.9375 L 25.609375 -22.9375 Z M 46.8125 -85.078125 L 30.40625 -36.8125 L 63.21875 -36.8125 Z M 46.8125 -85.078125 "/>
                    </g>
                </g>
            </g>
            <g fill="#ffffff" fill-opacity="1">
                <g transform="translate(631.520644, 167.046704)">
                    <g>
                        <path d="M 50.015625 0 L 34.265625 0 L 34.265625 -87.609375 L 1.59375 -87.609375 L 1.59375 -101.75 L 82.8125 -101.75 L 82.8125 -87.609375 L 50.015625 -87.609375 Z M 50.015625 0 "/>
                    </g>
                </g>
            </g>
            <g fill="#ffffff" fill-opacity="1">
                <g transform="translate(715.925559, 167.046704)">
                    <g>
                        <path d="M 25.46875 0 L 9.734375 0 L 9.734375 -101.75 L 25.46875 -101.75 Z M 25.46875 0 "/>
                    </g>
                </g>
            </g>
            <g clip-path="url(#cdc811e3df)">
                <path fill="#ffffff" d="M 116.808594 232.792969 C 52.859375 232.792969 0.871094 180.800781 0.871094 116.851562 C 0.871094 52.902344 52.859375 0.914062 116.808594 0.914062 C 180.757812 0.914062 232.75 52.902344 232.75 116.851562 C 232.75 180.800781 180.757812 232.792969 116.808594 232.792969 Z M 116.808594 10.921875 C 58.472656 10.921875 10.878906 58.515625 10.878906 116.851562 C 10.878906 175.1875 58.472656 222.785156 116.808594 222.785156 C 175.144531 222.785156 222.742188 175.1875 222.742188 116.851562 C 222.742188 58.515625 175.144531 10.921875 116.808594 10.921875 Z M 116.808594 10.921875 " fill-opacity="1" fill-rule="nonzero"/>
            </g>
        </g>
    </g>
</svg>